<svg width="60" height="40" viewBox="0 0 60 40" fill="none" xmlns="http://www.w3.org/2000/svg">
<g clip-path="url(#clip0_1201_864)">
<path d="M6.69727 38H53.3015L29.9994 14.646L6.69727 38Z" fill="white"/>
<path d="M31.9158 8.45708L27.7926 10.4285L26.9852 9.62079L28.9533 5.48954L25.9092 8.54009L24.6846 7.31252L29.9845 2L31.7192 3.73679L29.7218 7.68553L33.7144 5.73537L35.3963 7.42426L30.0948 12.7368L28.8702 11.5092L31.9158 8.45708Z" fill="white"/>
<path d="M22.563 9.4484L23.5479 12.4479L23.5207 12.4447L20.6749 11.3384L19.1944 12.8214L24.1122 14.3794L26.1778 16.4498L27.524 15.1009L25.4472 13.0178L24.1298 7.87604L22.563 9.4484Z" fill="white"/>
<path fill-rule="evenodd" clip-rule="evenodd" d="M16.5484 15.2398C18.2064 13.5781 20.3983 13.7393 21.9523 15.2957C23.5047 16.8521 23.6678 19.0486 22.0098 20.7088C20.3519 22.3705 18.16 22.2093 16.6076 20.6529C15.052 19.0965 14.8921 16.9 16.5484 15.2398ZM17.602 16.295C16.7611 17.1378 17.0424 18.1627 18.0673 19.1891C19.0921 20.2155 20.1137 20.4965 20.9546 19.6552C21.7956 18.8124 21.5142 17.7875 20.4894 16.7611C19.4646 15.7331 18.443 15.4521 17.602 16.295Z" fill="white"/>
<path d="M15.3702 22.6419L18.977 23.6667L17.5333 25.113L12.9496 23.8136L13.7394 23.0218C14.1263 22.6355 14.1359 22.0177 13.7634 21.6442C13.3893 21.2691 12.7754 21.2818 12.3901 21.6697L11.5219 22.5381L15.813 26.8386L14.4685 28.1875L9.16693 22.8733L11.8529 20.1804L11.8545 20.182C12.7466 19.2864 14.0864 19.2593 14.873 20.0447C15.6036 20.7774 15.789 21.8485 15.3734 22.6403L15.3702 22.6419Z" fill="white"/>
<path d="M7.17323 27.0397L8.07813 27.9464L9.9423 26.0755L11.0247 27.1594L9.1573 29.0303L10.3116 30.186L12.617 27.8746L13.6994 28.9569L10.0462 32.6172L4.74469 27.3047L8.39789 23.6428L9.47865 24.7267L7.17323 27.0397Z" fill="white"/>
<path d="M5.69118 36.9832L9.28682 33.3803L8.07974 32.1703L5.82707 34.4275L1.73262 30.3234L0.389648 31.6707L5.69118 36.9832Z" fill="white"/>
<path d="M48.0794 30.7607L53.381 25.4466L51.9693 24.0307L46.6677 29.3448L48.0794 30.7607Z" fill="white"/>
<path d="M36.9839 11.1804L36.079 12.0871L38.1126 14.1256L37.0303 15.2095L34.9982 13.1694L33.8439 14.3267L36.3188 16.8058L35.238 17.8897L31.4186 14.0617L36.7185 8.74921L40.5396 12.5772L39.4572 13.6579L36.9839 11.1804Z" fill="white"/>
<path d="M45.6957 28.3774L42.1016 24.7746L47.4016 19.462L48.7445 20.8077L44.6517 24.9102L46.9027 27.1674L45.6957 28.3774Z" fill="white"/>
<path d="M56.3819 28.4509L54.6824 34.0842L58.3404 30.4159L59.6002 31.6786L54.3003 36.9879L52.6375 35.323L54.0871 29.5241L50.468 33.1488L49.2449 31.9228L54.5433 26.6103L56.3819 28.4509Z" fill="white"/>
<path d="M42.1192 20.1532L41.0976 23.7689L39.6539 22.3194L40.7843 17.5576L41.7419 18.5186C42.1288 18.9049 42.7444 18.9161 43.1169 18.541C43.491 18.1674 43.4766 17.5529 43.0929 17.165L42.0569 16.1289L37.7658 20.431L36.4212 19.0821L41.7227 13.768L44.5765 16.627V16.6286C45.4687 17.5241 45.4974 18.8666 44.7124 19.6552C43.9818 20.3863 42.9122 20.5731 42.1224 20.1564L42.1192 20.1532Z" fill="white"/>
</g>
<defs>
<clipPath id="clip0_1201_864">
<rect width="59.2105" height="36" fill="white" transform="translate(0.389648 2)"/>
</clipPath>
</defs>
</svg>
